<?xml version="1.0" encoding="utf-8" standalone="no"?>
<!DOCTYPE svg PUBLIC "-//W3C//DTD SVG 1.1//EN"
  "http://www.w3.org/Graphics/SVG/1.1/DTD/svg11.dtd">
<svg xmlns:xlink="http://www.w3.org/1999/xlink" width="748.8pt" height="748.8pt" viewBox="0 0 748.8 748.8" xmlns="http://www.w3.org/2000/svg" version="1.1">
 <metadata>
  <rdf:RDF xmlns:dc="http://purl.org/dc/elements/1.1/" xmlns:cc="http://creativecommons.org/ns#" xmlns:rdf="http://www.w3.org/1999/02/22-rdf-syntax-ns#">
   <cc:Work>
    <dc:type rdf:resource="http://purl.org/dc/dcmitype/StillImage"/>
    <dc:date>2024-01-01T19:55:28.724657</dc:date>
    <dc:format>image/svg+xml</dc:format>
    <dc:creator>
     <cc:Agent>
      <dc:title>Matplotlib v3.8.2, https://matplotlib.org/</dc:title>
     </cc:Agent>
    </dc:creator>
   </cc:Work>
  </rdf:RDF>
 </metadata>
 <defs>
  <style type="text/css">*{stroke-linejoin: round; stroke-linecap: butt}</style>
 </defs>
 <g id="figure_1">
  <g id="patch_1">
   <path d="M 0 748.8 
L 748.8 748.8 
L 748.8 0 
L 0 0 
L 0 748.8 
z
" style="fill: none"/>
  </g>
  <g id="axes_1">
   <g id="patch_2">
    <path d="M 25.92 722.88 
L 722.88 722.88 
L 722.88 25.92 
L 25.92 25.92 
L 25.92 722.88 
z
" style="fill: none"/>
   </g>
   <g id="LineCollection_1">
    <path d="M 157.665495 263.110751 
L 473.83771 368.173482 
" clip-path="url(#p83e47aa0af)" style="fill: none; stroke: #d3d3d3; stroke-width: 3"/>
    <path d="M 157.665495 263.110751 
L 399.584216 86.4 
" clip-path="url(#p83e47aa0af)" style="fill: none; stroke: #d3d3d3; stroke-width: 3"/>
    <path d="M 157.665495 263.110751 
L 275.727237 329.794073 
" clip-path="url(#p83e47aa0af)" style="fill: none; stroke: #d3d3d3; stroke-width: 3"/>
    <path d="M 157.665495 263.110751 
L 205.901928 580.44814 
" clip-path="url(#p83e47aa0af)" style="fill: none; stroke: #d3d3d3; stroke-width: 3"/>
    <path d="M 157.665495 263.110751 
L 377.759832 398.392289 
" clip-path="url(#p83e47aa0af)" style="fill: none; stroke: #d3d3d3; stroke-width: 3"/>
    <path d="M 473.83771 368.173482 
L 399.584216 86.4 
" clip-path="url(#p83e47aa0af)" style="fill: none; stroke: #d3d3d3; stroke-width: 3"/>
    <path d="M 473.83771 368.173482 
L 367.006941 662.4 
" clip-path="url(#p83e47aa0af)" style="fill: none; stroke: #d3d3d3; stroke-width: 3"/>
    <path d="M 473.83771 368.173482 
L 662.4 475.617399 
" clip-path="url(#p83e47aa0af)" style="fill: none; stroke: #d3d3d3; stroke-width: 3"/>
    <path d="M 473.83771 368.173482 
L 377.759832 398.392289 
" clip-path="url(#p83e47aa0af)" style="fill: none; stroke: #d3d3d3; stroke-width: 3"/>
    <path d="M 399.584216 86.4 
L 583.43264 295.523896 
" clip-path="url(#p83e47aa0af)" style="fill: none; stroke: #d3d3d3; stroke-width: 3"/>
    <path d="M 399.584216 86.4 
L 283.048688 135.911213 
" clip-path="url(#p83e47aa0af)" style="fill: none; stroke: #d3d3d3; stroke-width: 3"/>
    <path d="M 399.584216 86.4 
L 377.759832 398.392289 
" clip-path="url(#p83e47aa0af)" style="fill: none; stroke: #d3d3d3; stroke-width: 3"/>
    <path d="M 275.727237 329.794073 
L 205.901928 580.44814 
" clip-path="url(#p83e47aa0af)" style="fill: none; stroke: #d3d3d3; stroke-width: 3"/>
    <path d="M 275.727237 329.794073 
L 469.698318 567.112012 
" clip-path="url(#p83e47aa0af)" style="fill: none; stroke: #d3d3d3; stroke-width: 3"/>
    <path d="M 275.727237 329.794073 
L 549.441116 145.10384 
" clip-path="url(#p83e47aa0af)" style="fill: none; stroke: #d3d3d3; stroke-width: 3"/>
    <path d="M 275.727237 329.794073 
L 377.759832 398.392289 
" clip-path="url(#p83e47aa0af)" style="fill: none; stroke: #d3d3d3; stroke-width: 3"/>
    <path d="M 205.901928 580.44814 
L 580.335007 646.153884 
" clip-path="url(#p83e47aa0af)" style="fill: none; stroke: #d3d3d3; stroke-width: 3"/>
    <path d="M 205.901928 580.44814 
L 86.4 471.960737 
" clip-path="url(#p83e47aa0af)" style="fill: none; stroke: #d3d3d3; stroke-width: 3"/>
    <path d="M 205.901928 580.44814 
L 377.759832 398.392289 
" clip-path="url(#p83e47aa0af)" style="fill: none; stroke: #d3d3d3; stroke-width: 3"/>
    <path d="M 367.006941 662.4 
L 662.4 475.617399 
" clip-path="url(#p83e47aa0af)" style="fill: none; stroke: #d3d3d3; stroke-width: 3"/>
    <path d="M 367.006941 662.4 
L 86.4 471.960737 
" clip-path="url(#p83e47aa0af)" style="fill: none; stroke: #d3d3d3; stroke-width: 3"/>
    <path d="M 367.006941 662.4 
L 469.698318 567.112012 
" clip-path="url(#p83e47aa0af)" style="fill: none; stroke: #d3d3d3; stroke-width: 3"/>
    <path d="M 367.006941 662.4 
L 377.759832 398.392289 
" clip-path="url(#p83e47aa0af)" style="fill: none; stroke: #d3d3d3; stroke-width: 3"/>
    <path d="M 662.4 475.617399 
L 580.335007 646.153884 
" clip-path="url(#p83e47aa0af)" style="fill: none; stroke: #d3d3d3; stroke-width: 3"/>
    <path d="M 662.4 475.617399 
L 549.441116 145.10384 
" clip-path="url(#p83e47aa0af)" style="fill: none; stroke: #d3d3d3; stroke-width: 3"/>
    <path d="M 662.4 475.617399 
L 377.759832 398.392289 
" clip-path="url(#p83e47aa0af)" style="fill: none; stroke: #d3d3d3; stroke-width: 3"/>
    <path d="M 583.43264 295.523896 
L 283.048688 135.911213 
" clip-path="url(#p83e47aa0af)" style="fill: none; stroke: #d3d3d3; stroke-width: 3"/>
    <path d="M 583.43264 295.523896 
L 580.335007 646.153884 
" clip-path="url(#p83e47aa0af)" style="fill: none; stroke: #d3d3d3; stroke-width: 3"/>
    <path d="M 583.43264 295.523896 
L 469.698318 567.112012 
" clip-path="url(#p83e47aa0af)" style="fill: none; stroke: #d3d3d3; stroke-width: 3"/>
    <path d="M 583.43264 295.523896 
L 377.759832 398.392289 
" clip-path="url(#p83e47aa0af)" style="fill: none; stroke: #d3d3d3; stroke-width: 3"/>
    <path d="M 283.048688 135.911213 
L 86.4 471.960737 
" clip-path="url(#p83e47aa0af)" style="fill: none; stroke: #d3d3d3; stroke-width: 3"/>
    <path d="M 283.048688 135.911213 
L 549.441116 145.10384 
" clip-path="url(#p83e47aa0af)" style="fill: none; stroke: #d3d3d3; stroke-width: 3"/>
    <path d="M 283.048688 135.911213 
L 377.759832 398.392289 
" clip-path="url(#p83e47aa0af)" style="fill: none; stroke: #d3d3d3; stroke-width: 3"/>
    <path d="M 580.335007 646.153884 
L 377.759832 398.392289 
" clip-path="url(#p83e47aa0af)" style="fill: none; stroke: #d3d3d3; stroke-width: 3"/>
    <path d="M 86.4 471.960737 
L 377.759832 398.392289 
" clip-path="url(#p83e47aa0af)" style="fill: none; stroke: #d3d3d3; stroke-width: 3"/>
    <path d="M 469.698318 567.112012 
L 377.759832 398.392289 
" clip-path="url(#p83e47aa0af)" style="fill: none; stroke: #d3d3d3; stroke-width: 3"/>
    <path d="M 549.441116 145.10384 
L 377.759832 398.392289 
" clip-path="url(#p83e47aa0af)" style="fill: none; stroke: #d3d3d3; stroke-width: 3"/>
   </g>
   <g id="matplotlib.axis_1">
    <g id="xtick_1"/>
    <g id="xtick_2"/>
    <g id="xtick_3"/>
    <g id="xtick_4"/>
    <g id="xtick_5"/>
   </g>
   <g id="matplotlib.axis_2">
    <g id="ytick_1"/>
    <g id="ytick_2"/>
    <g id="ytick_3"/>
    <g id="ytick_4"/>
    <g id="ytick_5"/>
    <g id="ytick_6"/>
    <g id="ytick_7"/>
    <g id="ytick_8"/>
    <g id="ytick_9"/>
   </g>
   <g id="PathCollection_1">
    <defs>
     <path id="m795b1bd659" d="M 0 8.660254 
C 2.296726 8.660254 4.499694 7.747755 6.123724 6.123724 
C 7.747755 4.499694 8.660254 2.296726 8.660254 0 
C 8.660254 -2.296726 7.747755 -4.499694 6.123724 -6.123724 
C 4.499694 -7.747755 2.296726 -8.660254 0 -8.660254 
C -2.296726 -8.660254 -4.499694 -7.747755 -6.123724 -6.123724 
C -7.747755 -4.499694 -8.660254 -2.296726 -8.660254 0 
C -8.660254 2.296726 -7.747755 4.499694 -6.123724 6.123724 
C -4.499694 7.747755 -2.296726 8.660254 0 8.660254 
z
" style="stroke: #d3d3d3; stroke-width: 2"/>
    </defs>
    <g clip-path="url(#p83e47aa0af)">
     <use xlink:href="#m795b1bd659" x="157.665495" y="263.110751" style="fill: #d3d3d3; stroke: #d3d3d3; stroke-width: 2"/>
     <use xlink:href="#m795b1bd659" x="473.83771" y="368.173482" style="fill: #d3d3d3; stroke: #d3d3d3; stroke-width: 2"/>
     <use xlink:href="#m795b1bd659" x="399.584216" y="86.4" style="fill: #d3d3d3; stroke: #d3d3d3; stroke-width: 2"/>
     <use xlink:href="#m795b1bd659" x="275.727237" y="329.794073" style="fill: #d3d3d3; stroke: #d3d3d3; stroke-width: 2"/>
     <use xlink:href="#m795b1bd659" x="205.901928" y="580.44814" style="fill: #d3d3d3; stroke: #d3d3d3; stroke-width: 2"/>
     <use xlink:href="#m795b1bd659" x="367.006941" y="662.4" style="fill: #d3d3d3; stroke: #d3d3d3; stroke-width: 2"/>
     <use xlink:href="#m795b1bd659" x="662.4" y="475.617399" style="fill: #d3d3d3; stroke: #d3d3d3; stroke-width: 2"/>
     <use xlink:href="#m795b1bd659" x="583.43264" y="295.523896" style="fill: #d3d3d3; stroke: #d3d3d3; stroke-width: 2"/>
     <use xlink:href="#m795b1bd659" x="283.048688" y="135.911213" style="fill: #d3d3d3; stroke: #d3d3d3; stroke-width: 2"/>
     <use xlink:href="#m795b1bd659" x="580.335007" y="646.153884" style="fill: #d3d3d3; stroke: #d3d3d3; stroke-width: 2"/>
     <use xlink:href="#m795b1bd659" x="86.4" y="471.960737" style="fill: #d3d3d3; stroke: #d3d3d3; stroke-width: 2"/>
     <use xlink:href="#m795b1bd659" x="469.698318" y="567.112012" style="fill: #d3d3d3; stroke: #d3d3d3; stroke-width: 2"/>
     <use xlink:href="#m795b1bd659" x="549.441116" y="145.10384" style="fill: #d3d3d3; stroke: #d3d3d3; stroke-width: 2"/>
     <use xlink:href="#m795b1bd659" x="377.759832" y="398.392289" style="fill: #d3d3d3; stroke: #d3d3d3; stroke-width: 2"/>
    </g>
   </g>
  </g>
 </g>
 <defs>
  <clipPath id="p83e47aa0af">
   <rect x="25.92" y="25.92" width="696.96" height="696.96"/>
  </clipPath>
 </defs>
</svg>
